<svg id="Layer_1" height="512" viewBox="0 0 512 512" width="512" xmlns="http://www.w3.org/2000/svg" data-name="Layer 1"><path d="m154.68 115.73h65.43v27.7h-65.43z" fill="#7b9aaa"/><path d="m271.03 166.34a44.106 44.106 0 0 0 -39.39-24.34h-87.49a44.106 44.106 0 0 0 -39.39 24.34l-7.83 15.66h181.93z" fill="#91b1c4"/><path d="m174.15 142h-30a44.106 44.106 0 0 0 -39.39 24.34l-7.83 15.66h30l7.83-15.66a44.106 44.106 0 0 1 39.39-24.34z" fill="#758e9b"/><path d="m233.5 25h-92.21c-16.15 0-29.29 13.55-29.29 29.71v63.29h151v-63.29c0-16.16-13.34-29.71-29.5-29.71z" fill="#91b1c4"/><path d="m59 181c-23.75 0-43 19.72-43 43.47v222.02c0 22.12 17.94 40.51 40.06 40.51h298.94l1-.51v-305.49z" fill="#7b9aaa"/><path d="m187.9 214.29a119.69 119.69 0 1 1 -119.7 119.69 119.687 119.687 0 0 1 119.7-119.69z" fill="#adf0e5"/><circle cx="187.9" cy="333.98" fill="#6addc7" r="72.5"/><path d="m365.96 153.83h70.34v28.64h-70.34z" fill="#7d8595"/><path d="m455.94 181h-100.94v306h100.94c22.12 0 40.06-18.39 40.06-40.51v-224.96c0-22.13-17.94-40.53-40.06-40.53z" fill="#5c626d"/><path d="m355 413v26h.62 140.38v-26h-140.38z" fill="#7d8595"/><path d="m355.62 227h-.62v26h.62 140.38v-26z" fill="#7d8595"/><path d="m46 446.49v-222.02c0-23.75 19.25-43.47 43-43.47h-30c-23.75 0-43 19.72-43 43.47v222.02c0 22.12 17.94 40.51 40.06 40.51h30c-22.12 0-40.06-18.39-40.06-40.51z" fill="#617a84"/><path d="m145.4 333.98a72.52 72.52 0 0 1 57.5-70.937 72.5 72.5 0 1 0 0 141.874 72.52 72.52 0 0 1 -57.5-70.937z" fill="#57b2a1"/><path d="m142 54.71c0-16.16 13.14-29.71 29.29-29.71h-30c-16.15 0-29.29 13.55-29.29 29.71v63.29h30z" fill="#758e9b"/><path d="m142.21 54.19h90.37v39.52h-90.37z" fill="#a5e2fb"/><g fill="#f4f8fc"><path d="m167.016 248.818a6 6 0 0 1 -1.185-11.881c1.7-.345 3.431-.649 5.144-.9a6 6 0 0 1 1.768 11.869c-1.508.224-3.032.492-4.529.8a5.99 5.99 0 0 1 -1.198.112z"/><path d="m90.923 342a6 6 0 0 1 -6-6 100.969 100.969 0 0 1 61.528-93.045 6 6 0 0 1 4.699 11.045 88.986 88.986 0 0 0 -54.227 82 6 6 0 0 1 -6 6z"/></g></svg>