<svg id="Layer_1" height="512" viewBox="0 0 512 512" width="512" xmlns="http://www.w3.org/2000/svg" data-name="Layer 1"><path d="m340.034 114.275a31.837 31.837 0 0 1 -31.8-31.8v-18.275a23.049 23.049 0 1 0 -46.1 0v21.848a6 6 0 0 1 -12 0v-21.848a35.049 35.049 0 1 1 70.1 0v18.274a19.8 19.8 0 1 0 39.6 0v-64.584a6 6 0 1 1 12 0v64.584a31.837 31.837 0 0 1 -31.8 31.801z" fill="#b0b5ca"/><path d="m477.46 321.11-143.095 40.14 25.352 91.11a60.3 60.3 0 0 0 118.283-16.49v-114.44z" fill="#86909d"/><path d="m34.37 321.23-.37.2v114.44a60.295 60.295 0 0 0 118.275 16.49l25.368-91.11z" fill="#86909d"/><path d="m81.7 478.47a60.139 60.139 0 0 1 -17.7-42.6v-106.364l-29.63-8.276-.37.2v114.44a60.323 60.323 0 0 0 75.3 58.352 60.18 60.18 0 0 1 -27.6-15.752z" fill="#5e656d"/><path d="m270.52 99.27v23h-29.04v-23a14.52 14.52 0 1 1 29.04 0z" fill="#afb9bf"/><path d="m300.52 119h-89.04a20.641 20.641 0 0 0 -20.48 20.27v9.73h130v-9.73a20.641 20.641 0 0 0 -20.48-20.27z" fill="#86909d"/><path d="m381.73 145h-251.46a114.165 114.165 0 1 0 60.67 211.014 33.463 33.463 0 0 0 60.8-16.64 34.544 34.544 0 0 0 .06-4.062 9.885 9.885 0 0 1 9.94-10.312h.02a9.9 9.9 0 0 1 9.98 10.32 32.394 32.394 0 0 0 .06 4.055 33.451 33.451 0 0 0 57.28 20.884q2.685 1.395 5.43 2.635a114.179 114.179 0 0 0 142.89-41.783 112.641 112.641 0 0 0 18.6-62.9 114.082 114.082 0 0 0 -114.27-113.211z" fill="#afb9bf"/><path d="m382.38 182.6a76.34 76.34 0 1 1 -76.35 76.34 76.342 76.342 0 0 1 76.35-76.34z" fill="#a3bee3"/><path d="m129.62 182.6a76.34 76.34 0 1 1 -76.34 76.34 76.344 76.344 0 0 1 76.34-76.34z" fill="#a3bee3"/><g fill="#6d7486"><path d="m412.31 245.44a13.5 13.5 0 1 1 -13.5 13.5 13.493 13.493 0 0 1 13.5-13.5z"/><path d="m382.4 215.54a13.5 13.5 0 1 1 -13.49 13.49 13.493 13.493 0 0 1 13.49-13.49z"/><path d="m382.4 275.34a13.5 13.5 0 1 1 -13.49 13.5 13.5 13.5 0 0 1 13.49-13.5z"/><path d="m352.5 245.44a13.5 13.5 0 1 1 -13.5 13.5 13.5 13.5 0 0 1 13.5-13.5z"/></g><path d="m306.4 320.11a16.735 16.735 0 1 1 -16.73 16.73 16.73 16.73 0 0 1 16.73-16.73z" fill="#e87187"/><path d="m288.73 180.94a12.5 12.5 0 1 1 0 24.99h-32.73v-24.99z" fill="#6994fe"/><path d="m256 180.94v24.99h-32.73a12.5 12.5 0 1 1 0-24.99z" fill="#80aaff"/><path d="m217.6 320.11a16.735 16.735 0 1 1 -16.73 16.73 16.73 16.73 0 0 1 16.73-16.73z" fill="#f3ce7d"/><path d="m172.88 258.82a14.291 14.291 0 0 1 -14.29 14.31h-14.33v14.31a14.311 14.311 0 1 1 -28.62.24v-14.55h-14.32a14.316 14.316 0 0 1 0-28.63h14.32v-14.31a14.311 14.311 0 0 1 28.62 0v14.31h14.31a14.308 14.308 0 0 1 14.31 14.31z" fill="#6d7486"/><path d="m94.38 352.4a114.108 114.108 0 0 1 65.89-207.4h-30a114.175 114.175 0 1 0 15 227.363 113.736 113.736 0 0 1 -50.89-19.963z" fill="#868f93"/><path d="m83.28 258.94a76.361 76.361 0 0 1 61.342-74.858 76.34 76.34 0 1 0 0 149.716 76.361 76.361 0 0 1 -61.342-74.858z" fill="#7d97b7"/><path d="m56.631 457.962c-.106 0-.213 0-.319-.008a6 6 0 0 1 -5.678-6.306l2.7-51.451a6 6 0 0 1 11.984.629l-2.7 51.451a6 6 0 0 1 -5.987 5.685z" fill="#f4f8fc"/><path d="m60.4 386.159c-.106 0-.213 0-.32-.009a6 6 0 0 1 -5.677-6.306l.253-4.827a6 6 0 1 1 11.984.629l-.254 4.827a6 6 0 0 1 -5.986 5.686z" fill="#f4f8fc"/></svg>