<svg id="Layer_1" height="512" viewBox="0 0 512 512" width="512" xmlns="http://www.w3.org/2000/svg" data-name="Layer 1"><path d="m16 430v6.12a20.9 20.9 0 0 0 21.03 20.88h437.94a20.9 20.9 0 0 0 21.03-20.88v-6.12z" fill="#657b7c"/><path d="m423.55 54h-335.1c-11.62 0-21.45 9.26-21.45 20.88v218.12h378v-218.12c0-11.62-9.83-20.88-21.45-20.88z" fill="#a4bdc1"/><path d="m67.42 293.35a19.8 19.8 0 0 1 6.41-1.05h364.34a19.8 19.8 0 0 1 6.41 1.05 20.178 20.178 0 0 1 13.39 15.28l38.03 122.05h-480l38.03-122.05a20.178 20.178 0 0 1 13.39-15.28z" fill="#84a0a3"/><path d="m429.46 315.5 11.06 41.11h-369.04l11.06-41.11z" fill="#a4bdc1"/><path d="m316.53 375.88 11.11 32.55h-143.28l11.11-32.55z" fill="#a4bdc1"/><path d="m96.89 81.13h318.22v184.91h-318.22z" fill="#80aaff"/><path d="m97 81h30v185h-30z" fill="#6d92cc"/><path d="m116.012 131.44a6 6 0 0 1 -4.242-10.24l17.824-17.824a6 6 0 1 1 8.484 8.485l-17.824 17.824a5.982 5.982 0 0 1 -4.242 1.755z" fill="#506f8e"/><path d="m120.4 155.652a6 6 0 0 1 -4.243-10.243l37.653-37.652a6 6 0 1 1 8.484 8.486l-37.656 37.657a5.982 5.982 0 0 1 -4.238 1.752z" fill="#506f8e"/><g fill="#f4f8fc"><path d="m388 209.913a6 6 0 0 1 -6-6v-75.807a6 6 0 0 1 12 0v75.807a6 6 0 0 1 -6 6z"/><path d="m388 113.726a6 6 0 0 1 -6-6v-4.834a6 6 0 0 1 12 0v4.834a6 6 0 0 1 -6 6z"/></g></svg>