<svg id="Layer_1" height="512" viewBox="0 0 512 512" width="512" xmlns="http://www.w3.org/2000/svg" data-name="Layer 1"><path d="m457.59 400.44v14.5a16.8 16.8 0 0 1 -16.8 16.8h-369.58a16.811 16.811 0 0 1 -16.8-16.8v-14.5z" fill="#a4bdc1"/><path d="m84 414.94v-14.94h-30v14.94a17.383 17.383 0 0 0 17.21 17.06h30a17.383 17.383 0 0 1 -17.21-17.06z" fill="#769093"/><path d="m113.62 245.02v.1h-23.24v-151.94a11.62 11.62 0 1 1 23.24 0z" fill="#84a0a3"/><path d="m124.48 243h-44.96c-7.73 0-13.52 6.38-13.52 14.12v14.88h72v-14.88c0-7.74-5.79-14.12-13.52-14.12z" fill="#b3d1e7"/><path d="m465.59 270h-419.18c-18.78 0-34.41 15.13-34.41 33.91v63.53c0 18.78 15.63 33.56 34.41 33.56h418.975c18.78 0 34.615-14.78 34.615-33.56v-63.53c0-18.78-15.63-33.91-34.41-33.91z" fill="#b0b5ca"/><path d="m316.51 322.22a13.455 13.455 0 1 1 -13.46 13.46 13.458 13.458 0 0 1 13.46-13.46z" fill="#4ca987"/><path d="m104.65 322.67v26.02h-29.61a13.01 13.01 0 1 1 0-26.02z" fill="#80aaff"/><path d="m134.26 322.67a13.01 13.01 0 1 1 0 26.02h-29.61v-26.02z" fill="#6994fe"/><path d="m436.51 322.22a13.455 13.455 0 1 1 -13.46 13.46 13.458 13.458 0 0 1 13.46-13.46z" fill="#5fa8ed"/><path d="m376.51 322.22a13.455 13.455 0 1 1 -13.46 13.46 13.458 13.458 0 0 1 13.46-13.46z" fill="#e87187"/><path d="m42 367.44v-63.53c0-18.78 15.63-33.91 34.41-33.91h-30c-18.78 0-34.41 15.13-34.41 33.91v63.53c0 18.78 15.63 33.56 34.41 33.56h30c-18.78 0-34.41-14.78-34.41-33.56z" fill="#9094a3"/><g fill="#d4e1f4"><path d="m41.174 166.091a5.979 5.979 0 0 1 -4.242-1.758 61.808 61.808 0 0 1 0-87.313 6 6 0 1 1 8.485 8.485 49.8 49.8 0 0 0 0 70.343 6 6 0 0 1 -4.243 10.243z"/><path d="m55.083 152.183a5.981 5.981 0 0 1 -4.243-1.758 42.119 42.119 0 0 1 0-59.5 6 6 0 1 1 8.485 8.486 30.105 30.105 0 0 0 0 42.526 6 6 0 0 1 -4.242 10.243z"/><path d="m69.152 139.427a5.984 5.984 0 0 1 -4.243-1.757 24.06 24.06 0 0 1 0-33.987 6 6 0 1 1 8.486 8.485 12.046 12.046 0 0 0 0 17.017 6 6 0 0 1 -4.243 10.242z"/><path d="m162.826 166.091a6 6 0 0 1 -4.243-10.243 49.8 49.8 0 0 0 0-70.343 6 6 0 1 1 8.485-8.485 61.808 61.808 0 0 1 0 87.313 5.979 5.979 0 0 1 -4.242 1.758z"/><path d="m148.917 152.183a6 6 0 0 1 -4.242-10.243 30.105 30.105 0 0 0 0-42.526 6 6 0 0 1 8.485-8.486 42.119 42.119 0 0 1 0 59.5 5.979 5.979 0 0 1 -4.243 1.755z"/><path d="m134.848 139.427a6 6 0 0 1 -4.243-10.242 12.046 12.046 0 0 0 0-17.017 6 6 0 0 1 8.486-8.485 24.06 24.06 0 0 1 0 33.987 5.984 5.984 0 0 1 -4.243 1.757z"/></g><path d="m444.532 300.4h-75.806a6 6 0 0 1 0-12h75.806a6 6 0 0 1 0 12z" fill="#f4f8fc"/><path d="m348.345 300.4h-4.834a6 6 0 0 1 0-12h4.834a6 6 0 0 1 0 12z" fill="#f4f8fc"/></svg>