<svg id="Layer_1" height="512" viewBox="0 0 512 512" width="512" xmlns="http://www.w3.org/2000/svg" data-name="Layer 1"><path d="m398.37 46v420a30 30 0 0 1 -30 30h-224.74a30 30 0 0 1 -30-30v-420a30 30 0 0 1 30-30h224.74a30 30 0 0 1 30 30z" fill="#7b9aaa"/><circle cx="259.5" cy="461.5" fill="#91b1c4" r="15.5"/><rect fill="#5fa8ed" height="380" rx="10" width="225" x="144" y="46"/><path d="m174 416v-360a10 10 0 0 1 10-10h-30a10 10 0 0 0 -10 10v360a10 10 0 0 0 10 10h30a10 10 0 0 1 -10-10z" fill="#4f8cbf"/><path d="m299.512 375.44a6 6 0 0 1 -4.242-10.24l17.824-17.824a6 6 0 1 1 8.484 8.485l-17.824 17.824a5.982 5.982 0 0 1 -4.242 1.755z" fill="#427da5"/><path d="m303.9 399.652a6 6 0 0 1 -4.243-10.243l37.653-37.652a6 6 0 0 1 8.484 8.486l-37.656 37.657a5.982 5.982 0 0 1 -4.238 1.752z" fill="#427da5"/><g fill="#f4f8fc"><path d="m168.5 175.413a6 6 0 0 1 -6-6v-75.807a6 6 0 0 1 12 0v75.807a6 6 0 0 1 -6 6z"/><path d="m168.5 79.226a6 6 0 0 1 -6-6v-4.834a6 6 0 0 1 12 0v4.834a6 6 0 0 1 -6 6z"/></g></svg>