<svg id="Layer_1" height="512" viewBox="0 0 512 512" width="512" xmlns="http://www.w3.org/2000/svg" data-name="Layer 1"><path d="m496 281.09v73.89a16.875 16.875 0 0 1 -16.88 16.87h-14.54v-107.63h14.55a16.873 16.873 0 0 1 16.87 16.87z" fill="#9ac5a1"/><path d="m47.42 264.22v107.63h-14.54a16.875 16.875 0 0 1 -16.88-16.87v-73.89a16.875 16.875 0 0 1 16.88-16.87z" fill="#9ac5a1"/><path d="m292.1 116.11 3.9 64.75h-80l3.9-64.75.79.05h70.62z" fill="#a4bdc1"/><path d="m290.61 91.79 1.49 24.32-.79.05h-70.62l-.79-.05 1.49-24.32a4.007 4.007 0 0 1 4-3.76h61.22a4.007 4.007 0 0 1 4 3.76z" fill="#84a0a3"/><path d="m400.4 180h-288.8a29.445 29.445 0 0 0 -29.6 29.21v4.79h348v-4.79a29.445 29.445 0 0 0 -29.6-29.21z" fill="#9ac5a1"/><path d="m435.4 212h-358.675c-17.19 0-31.725 14.09-31.725 31.29v149.49a31.576 31.576 0 0 0 31.6 31.22h128.85a31 31 0 0 0 22.05-9.155l22.36-22.358a8.685 8.685 0 0 1 12.28 0l22.36 22.363a31 31 0 0 0 22.05 9.15h128.85c17.19 0 31.6-14.02 31.6-31.22v-149.49c0-17.2-14.41-31.29-31.6-31.29z" fill="#75967a"/><path d="m435.4 235h-358.8a8.3 8.3 0 0 0 -8.6 8.29v149.49a8.092 8.092 0 0 0 2.5 5.905 8.329 8.329 0 0 0 6.1 2.315h128.85a8.421 8.421 0 0 0 6.14-2.315l22.37-22.232a31.238 31.238 0 0 1 44.09.088l22.36 22.129a8.434 8.434 0 0 0 6.14 2.33h128.85c4.78 0 8.6-3.43 8.6-8.22v-149.49a8.3 8.3 0 0 0 -8.6-8.29z" fill="#6addc7"/><path d="m98 392.78v-149.49a8.3 8.3 0 0 1 8.6-8.29h-30a8.3 8.3 0 0 0 -8.6 8.29v149.49a8.092 8.092 0 0 0 2.5 5.905 8.329 8.329 0 0 0 6.1 2.315h30a8.329 8.329 0 0 1 -6.1-2.315 8.092 8.092 0 0 1 -2.5-5.905z" fill="#56baa7"/><path d="m89.6 283.2a6 6 0 0 1 -4.242-10.242l16.711-16.711a6 6 0 1 1 8.485 8.485l-16.707 16.708a5.982 5.982 0 0 1 -4.247 1.76z" fill="#429383"/><path d="m93.715 305.9a6 6 0 0 1 -4.242-10.243l35.3-35.3a6 6 0 0 1 8.485 8.486l-35.3 35.3a5.982 5.982 0 0 1 -4.243 1.757z" fill="#429383"/><g fill="#f4f8fc"><path d="m419.5 363.886a6 6 0 0 1 -6-6v-75.806a6 6 0 1 1 12 0v75.806a6 6 0 0 1 -6 6z"/><path d="m419.5 267.7a6 6 0 0 1 -6-6v-4.834a6 6 0 0 1 12 0v4.834a6 6 0 0 1 -6 6z"/></g></svg>